<svg width="27" height="27" viewBox="0 0 27 27" xmlns="http://www.w3.org/2000/svg">
<path d="M13.5 1.5C6.873 1.5 1.5 6.873 1.5 13.5C1.5 20.127 6.873 25.5 13.5 25.5C20.127 25.5 25.5 20.127 25.5 13.5C25.5 6.873 20.127 1.5 13.5 1.5ZM13.5 22.5C8.5365 22.5 4.5 18.4635 4.5 13.5C4.5 8.5365 8.5365 4.5 13.5 4.5C18.4635 4.5 22.5 8.5365 22.5 13.5C22.5 18.4635 18.4635 22.5 13.5 22.5Z" fill="#2D3436"/>
<path d="M17.5829 9.43801L17.5619 9.41701C17.0054 8.86051 16.1024 8.86051 15.5459 9.41701L13.4999 11.463L11.4539 9.41701C10.8974 8.86051 9.99439 8.86051 9.43789 9.41701L9.41689 9.43801C8.86039 9.99451 8.86039 10.8975 9.41689 11.454L11.4629 13.5L9.41689 15.546C8.86039 16.1025 8.86039 17.0055 9.41689 17.562L9.43789 17.583C9.99439 18.1395 10.8974 18.1395 11.4539 17.583L13.4999 15.537L15.5459 17.583C16.1024 18.1395 17.0054 18.1395 17.5619 17.583L17.5829 17.562C18.1394 17.0055 18.1394 16.1025 17.5829 15.546L15.5369 13.5L17.5829 11.454C18.1394 10.8975 18.1394 9.99451 17.5829 9.43801Z" fill="#2D3436"/>
</svg>