<svg height="512pt" viewBox="-10 0 512 512" width="512pt" xmlns="http://www.w3.org/2000/svg"><path d="m341.746094 504.363281h-292.804688c-31.738281 0-51.589844-34.363281-35.707031-61.863281l99.636719-172.582031 53.960937-93.464844c12.675781-21.945313 44.347657-21.945313 57.023438 0l53.960937 93.464844 99.636719 172.582031c15.882813 27.5-3.96875 61.863281-35.707031 61.863281zm0 0" fill="#5b5b68"/><path d="m195.339844 159.992188c-4.8125 0-9.625 5.496093-12.382813 16.460937l-23.429687 93.464844-43.277344 172.582031c-6.898438 27.5 1.71875 61.863281 15.503906 61.863281h-82.8125c-31.738281 0-51.589844-34.363281-35.707031-61.863281l99.636719-172.582031 53.960937-93.464844c6.339844-10.964844 17.429688-16.460937 28.507813-16.460937zm0 0" fill="#40404c"/><path d="m263.003906 287.628906-28.121094-10.132812-14.457031 19.351562c-12.523437 16.753906-37.640625 16.753906-50.164062 0l-13.09375-17.519531-1.363281-1.832031-28.121094 10.132812c-10.78125 3.886719-20.539063-7.78125-14.8125-17.710937l53.960937-93.464844c6.339844-10.964844 17.429688-16.460937 28.507813-16.460937 11.089844 0 22.175781 5.496093 28.515625 16.460937l53.960937 93.464844c5.726563 9.929687-4.03125 21.597656-14.8125 17.710937zm0 0" fill="#e4e4ef"/><path d="m195.339844 159.992188c-4.8125 0-9.625 5.496093-12.382813 16.460937l-23.429687 93.464844-2.359375 9.410156-1.363281-1.832031-28.121094 10.132812c-10.78125 3.886719-20.539063-7.78125-14.8125-17.710937l53.960937-93.464844c6.339844-10.964844 17.429688-16.460937 28.507813-16.460937zm0 0" fill="#cacadb"/><path d="m457.132812 504.363281h-186.207031c-20.191406 0-32.808593-21.851562-22.714843-39.339843l63.359374-109.742188c0-.007812.011719-.007812.011719-.019531l34.3125-59.433594c8.058594-13.957031 28.210938-13.957031 36.269531 0l34.316407 59.433594c0 .011719.007812.011719.007812.019531l63.363281 109.742188c10.089844 17.488281-2.523437 39.339843-22.71875 39.339843zm0 0" fill="#5b5b68"/><path d="m363.679688 285.371094c-3.683594.214844-7.324219 3.691406-9.429688 10.457031l-18.527344 59.433594v.019531l-34.203125 109.742188c-5.441406 17.488281 1.363281 39.339843 12.269531 39.339843h-42.863281c-20.191406 0-32.808593-21.851562-22.714843-39.339843l63.359374-109.742188c0-.007812.011719-.007812.011719-.019531l34.3125-59.433594c3.957031-6.855469 10.847657-10.34375 17.785157-10.457031zm0 0" fill="#40404c"/><path d="m407.058594 366.535156-17.886719-6.449218-13.8125 18.496093c-5.65625 7.558594-17 7.558594-22.65625 0l-13.816406-18.496093-5.25 1.890624-12.636719 4.558594c-6.84375 2.460938-13.050781-4.933594-9.429688-11.253906 0-.007812.011719-.007812.011719-.019531l34.3125-59.433594c3.949219-6.824219 10.785157-10.316406 17.691407-10.457031h.09375c7.160156-.121094 14.382812 3.355468 18.484374 10.457031l34.316407 59.433594c0 .011719.007812.011719.007812.019531 3.621094 6.320312-2.582031 13.714844-9.429687 11.253906zm0 0" fill="#e4e4ef"/><path d="m363.636719 285.371094c-3.671875.242187-7.292969 3.714844-9.386719 10.457031l-18.527344 59.433594v.019531l-2.085937 6.695312-12.636719 4.558594c-6.84375 2.460938-13.050781-4.933594-9.429688-11.253906 0-.007812.011719-.007812.011719-.019531l34.3125-59.433594c3.949219-6.824219 10.785157-10.316406 17.691407-10.457031zm0 0" fill="#cacadb"/><path d="m305.355469 116.753906h-110.011719v-95.628906h110.011719l-24.417969 47.816406zm0 0" fill="#f94141"/><path d="m486.453125 461.203125-97.683594-169.195313c-5.160156-8.941406-14.417969-14.28125-24.742187-14.28125-10.328125 0-19.574219 5.339844-24.742188 14.28125l-19.949218 34.570313-88.875-153.945313c-6.035157-10.4375-15.984376-17.40625-27.488282-19.550781v-28.703125h102.382813c2.65625 0 5.117187-1.371094 6.511719-3.640625 1.382812-2.269531 1.496093-5.085937.285156-7.457031l-22.644532-44.347656 22.644532-44.335938c1.210937-2.367187 1.097656-5.1875-.285156-7.457031-1.394532-2.265625-3.855469-3.652344-6.511719-3.652344h-102.382813v-5.859375c0-4.222656-3.410156-7.628906-7.632812-7.628906-4.210938 0-7.628906 3.40625-7.628906 7.628906v145.453125c-11.496094 2.144531-21.457032 9.113281-27.488282 19.550781l-114.554687 198.425782c-2.105469 3.652344-.855469 8.308594 2.796875 10.414062 1.203125.703125 2.515625 1.03125 3.804687 1.03125 2.636719 0 5.199219-1.363281 6.613281-3.816406l50.917969-88.183594c5.433594 5.207032 13.238281 6.917969 20.46875 4.304688l22.8125-8.222656 11.078125 14.824218c7.414063 9.9375 18.789063 15.625 31.179688 15.625 12.402344 0 23.777344-5.6875 31.191406-15.625l11.082031-14.824218 22.808594 8.222656c7.230469 2.613281 15.023437.902344 20.46875-4.304688l29.632813 51.335938-68.925782 119.363281c-6.113281 10.601563-6.113281 23.265625 0 33.867187.335938.570313.683594 1.121094 1.039063 1.660157h-193.691407c-12.148437 0-23.035156-6.277344-29.105468-16.808594-6.074219-10.519531-6.074219-23.082031 0-33.613281l22.582031-39.105469c2.105469-3.652344.855469-8.320313-2.785156-10.429687-3.652344-2.105469-8.324219-.851563-10.429688 2.800781l-22.585937 39.105469c-8.828125 15.300781-8.828125 33.574218 0 48.875 8.832031 15.308593 24.652344 24.433593 42.324218 24.433593l348.988282.011719c4.214844 0 7.632812-3.417969 7.632812-7.628906 0-4.222656-3.417968-7.632813-7.632812-7.632813l-127.054688-.007812c-6.703125-.011719-12.707031-3.480469-16.0625-9.289063-3.359375-5.828125-3.359375-12.777344 0-18.605468l55.648438-96.363282c3.875 2.328125 8.636718 2.847656 13.121094 1.238282l12.566406-4.535157 10.4375 13.96875c4.152344 5.554688 10.507812 8.738281 17.4375 8.738281 6.9375 0 13.285156-3.183593 17.4375-8.738281l10.4375-13.96875 12.574218 4.535157c4.476563 1.609374 9.238282 1.089843 13.125-1.238282l55.636719 96.363282c3.367188 5.828124 3.367188 12.777343 0 18.605468-3.355469 5.820313-9.378906 9.296875-16.105469 9.296875h-28.675781c-4.214843 0-7.632812 3.410157-7.632812 7.632813 0 4.210937 3.417969 7.628906 7.632812 7.628906h28.675781c12.242188 0 23.207032-6.328125 29.320313-16.929688 6.125-10.601562 6.125-23.265624 0-33.867187zm-283.484375-432.453125h89.925781l-18.75 36.714844c-1.109375 2.1875-1.109375 4.761718 0 6.949218l18.75 36.707032h-89.925781zm67.777344 250.308594c-.632813.753906-2.390625 2.390625-5.160156 1.394531l-28.117188-10.132813c-3.15625-1.140624-6.683594-.082031-8.699219 2.601563l-14.457031 19.351563c-4.515625 6.042968-11.433594 9.503906-18.972656 9.503906-7.539063 0-14.445313-3.460938-18.964844-9.503906l-14.457031-19.351563c-2.011719-2.683594-5.542969-3.742187-8.695313-2.601563l-28.128906 10.132813c-2.769531.996094-4.527344-.640625-5.148438-1.394531-.632812-.753906-1.933593-2.777344-.46875-5.320313l53.960938-93.464843c4.546875-7.875 12.675781-12.59375 21.75-12.644532.050781 0 .101562.007813.152344.007813.050781 0 .101562-.007813.152344-.007813 9.085937.050782 17.203124 4.769532 21.75 12.632813l53.980468 93.507812c1.445313 2.53125.152344 4.535157-.476562 5.289063zm139.03125 80.328125s-.042969 0-.132813-.039063l-17.882812-6.441406c-3.15625-1.136719-6.6875-.082031-8.699219 2.605469l-13.816406 18.496093c-1.242188 1.65625-3.144532 2.613282-5.21875 2.613282-2.066406 0-3.96875-.957032-5.210938-2.613282l-13.824218-18.496093c-2.003907-2.6875-5.535157-3.742188-8.699219-2.605469l-17.882813 6.441406c-.050781.019532-.09375.03125-.101562.039063-.074219-.039063-.164063-.152344-.175782-.183594 0 0 .011719-.039063.050782-.121094l34.316406-59.441406c2.410156-4.164063 6.714844-6.65625 11.527344-6.65625s9.125 2.492187 11.527344 6.65625l34.324218 59.453125c.019532.039062.039063.082031.050782.082031-.03125.078125-.125.191407-.152344.210938zm0 0"/></svg>