<svg width="12" height="20" viewBox="0 0 12 20" fill="none" xmlns="http://www.w3.org/2000/svg">
<path d="M2.25 11.2506V19.375L6 15.625L9.75 19.375V11.2506C8.70562 12.035 7.40687 12.5 6 12.5C4.59313 12.5 3.29438 12.035 2.25 11.2506V11.2506ZM6 11.875C2.89312 11.875 0.375 9.35688 0.375 6.25C0.375 3.14312 2.89312 0.625 6 0.625C9.10688 0.625 11.625 3.14312 11.625 6.25C11.625 9.35688 9.10688 11.875 6 11.875ZM6 10C8.07125 10 9.75 8.32125 9.75 6.25C9.75 4.17875 8.07125 2.5 6 2.5C3.92875 2.5 2.25 4.17875 2.25 6.25C2.25 8.32125 3.92875 10 6 10ZM6 9.375C7.72562 9.375 9.125 7.97562 9.125 6.25C9.125 4.52438 7.72562 3.125 6 3.125C4.27438 3.125 2.875 4.52438 2.875 6.25C2.875 7.97562 4.27438 9.375 6 9.375Z" fill="#F2C94C"/>
</svg>
