<svg width="142" height="138" fill="none" xmlns="http://www.w3.org/2000/svg"><path d="M138.619 49.908l-45.973-4.313L74.384 2.709c-1.28-3.004-5.489-3.004-6.767 0L49.354 45.595 3.382 49.908c-3.22.302-4.52 4.351-2.091 6.509l34.687 30.818-10.151 45.554c-.711 3.189 2.695 5.692 5.474 4.023L71 112.971l39.7 23.841c2.78 1.669 6.185-.834 5.475-4.023l-10.152-45.554 34.688-30.818c2.428-2.158 1.127-6.207-2.092-6.51z" fill="#FFDC64"/><path d="M81.024 18.303l-6.64-15.596c-1.28-3.003-5.49-3.003-6.768 0L49.354 45.596 3.381 49.908c-3.22.302-4.52 4.351-2.091 6.509l34.687 30.818-10.151 45.554c-.711 3.189 2.695 5.692 5.474 4.023l5.284-3.173c8.662-56.71 33.014-98.34 44.44-115.336z" fill="#FFC850"/></svg>