<svg width="19" height="19" viewBox="0 0 19 19" fill="none" xmlns="http://www.w3.org/2000/svg">
<path d="M8.70817 2.37499H3.1665C2.511 2.37499 1.91567 2.64178 1.48738 3.07086C1.05909 3.49995 0.791504 4.09449 0.791504 4.74999V15.8333C0.791504 16.4888 1.0583 17.0842 1.48738 17.5124C1.91646 17.9407 2.511 18.2083 3.1665 18.2083H14.2498C14.9053 18.2083 15.5007 17.9415 15.929 17.5124C16.3573 17.0834 16.6248 16.4888 16.6248 15.8333V10.2917C16.6248 9.85465 16.2702 9.49999 15.8332 9.49999C15.3962 9.49999 15.0415 9.85465 15.0415 10.2917V15.8333C15.0415 16.0518 14.9536 16.2489 14.8095 16.393C14.6655 16.5371 14.4683 16.625 14.2498 16.625H3.1665C2.948 16.625 2.75088 16.5371 2.6068 16.393C2.46271 16.2489 2.37484 16.0518 2.37484 15.8333V4.74999C2.37484 4.53149 2.46271 4.33436 2.6068 4.19028C2.75088 4.0462 2.948 3.95832 3.1665 3.95832H8.70817C9.14517 3.95832 9.49984 3.60365 9.49984 3.16665C9.49984 2.72965 9.14517 2.37499 8.70817 2.37499ZM14.086 1.41945L6.56513 8.94028C6.46854 9.03607 6.39334 9.16195 6.35692 9.3084L5.56525 12.4751C5.53438 12.5938 5.532 12.7268 5.56525 12.859C5.67134 13.2834 6.10121 13.5414 6.52554 13.4354L9.69221 12.6437C9.82442 12.6112 9.95346 12.5416 10.0603 12.4355L17.5812 4.91465C18.0633 4.43253 18.3048 3.7984 18.3048 3.16745C18.3048 2.53649 18.0633 1.90236 17.5812 1.42024C17.099 0.938112 16.4641 0.695862 15.8332 0.695862C15.2022 0.695862 14.5681 0.93732 14.086 1.41945ZM15.2054 2.53886C15.3788 2.36549 15.6044 2.2792 15.8332 2.2792C16.062 2.2792 16.2876 2.36549 16.461 2.53886C16.6343 2.71224 16.7206 2.93786 16.7206 3.16665C16.7206 3.39545 16.6343 3.62107 16.461 3.79445L9.09529 11.1601L7.42171 11.5789L7.8405 9.90532L15.2054 2.53886Z" fill="black"/>
</svg>
