<svg width="29" height="36" viewBox="0 0 29 36" fill="none" xmlns="http://www.w3.org/2000/svg">
<path d="M29 29.2271C29 32.4857 26.825 35.1428 24.1744 35.1428H4.8256C2.175 35.1428 0 32.4871 0 29.2271C0 23.3571 1.4732 16.5714 7.40805 16.5714C9.24375 18.3343 11.7349 19.4285 14.5 19.4285C17.2652 19.4285 19.7563 18.3343 21.592 16.5714C27.5283 16.5714 29 23.3571 29 29.2271ZM23.2 9.42855C23.2 14.1614 19.3024 18 14.5 18C9.6976 18 5.8 14.16 5.8 9.42855C5.8 4.69712 9.6976 0.857117 14.5 0.857117C19.3024 0.857117 23.2 4.69712 23.2 9.42855Z" fill="#636E72"/>
</svg>
