<svg width="29" height="20" viewBox="0 0 29 20" fill="none" xmlns="http://www.w3.org/2000/svg">
<path d="M2.125 11.4166H26.875C27.634 11.4166 28.25 10.782 28.25 9.99998C28.25 9.21798 27.634 8.58331 26.875 8.58331H2.125C1.366 8.58331 0.75 9.21798 0.75 9.99998C0.75 10.782 1.366 11.4166 2.125 11.4166ZM2.125 2.91665H26.875C27.634 2.91665 28.25 2.28198 28.25 1.49998C28.25 0.71798 27.634 0.083313 26.875 0.083313H2.125C1.366 0.083313 0.75 0.71798 0.75 1.49998C0.75 2.28198 1.366 2.91665 2.125 2.91665ZM2.125 19.9166H26.875C27.634 19.9166 28.25 19.282 28.25 18.5C28.25 17.718 27.634 17.0833 26.875 17.0833H2.125C1.366 17.0833 0.75 17.718 0.75 18.5C0.75 19.282 1.366 19.9166 2.125 19.9166Z" fill="#2D3436"/>
</svg>
