<svg width="34" height="34" viewBox="0 0 34 34" fill="none" xmlns="http://www.w3.org/2000/svg">
<g clip-path="url(#clip0)">
<path d="M7.92073 1.19015C8.37349 1.81902 9.65142 4.51976 10.382 6.09373C10.4969 6.34116 10.1865 6.56468 9.98823 6.37722C8.72737 5.18509 6.57149 3.1164 6.11873 2.48746C5.76047 1.98988 5.87343 1.29607 6.37108 0.937805C6.86866 0.579542 7.56247 0.692566 7.92073 1.19015Z" fill="#FFF082"/>
<path d="M30.0628 10.488L21.1816 9.6643L17.6537 1.47221C17.4066 0.898588 16.5934 0.898588 16.3464 1.47221L12.8185 9.66423L3.93723 10.488C3.31533 10.5456 3.06405 11.3191 3.53321 11.7313L10.2341 17.618L8.2731 26.3192C8.13577 26.9284 8.79379 27.4064 9.33076 27.0876L17 22.5337L24.6693 27.0876C25.2063 27.4065 25.8642 26.9284 25.727 26.3192L23.7658 17.618L30.4669 11.7313C30.936 11.3191 30.6847 10.5456 30.0628 10.488Z" fill="#FFDC64"/>
<path d="M26.0792 1.19015C25.6265 1.81902 24.3485 4.51976 23.6179 6.09373C23.5031 6.34116 23.8135 6.56468 24.0117 6.37722C25.2726 5.18509 27.4284 3.11633 27.8812 2.48746C28.2395 1.98988 28.1265 1.29607 27.6289 0.937805C27.1313 0.579542 26.4375 0.692566 26.0792 1.19015Z" fill="#FFF082"/>
<path d="M33.2337 19.6315C32.497 19.3913 29.5356 18.9944 27.8142 18.7766C27.5436 18.7423 27.425 19.106 27.6637 19.2379C29.1826 20.0769 31.8085 21.5023 32.5452 21.7425C33.1281 21.9327 33.7548 21.6142 33.9449 21.0313C34.1351 20.4483 33.8166 19.8217 33.2337 19.6315Z" fill="#FFF082"/>
<path d="M0.766233 19.6315C1.50295 19.3913 4.46434 18.9944 6.18579 18.7766C6.4564 18.7423 6.575 19.106 6.33627 19.2379C4.81735 20.0769 2.19145 21.5023 1.45473 21.7425C0.871819 21.9327 0.245142 21.6142 0.0550208 21.0313C-0.135101 20.4483 0.183318 19.8217 0.766233 19.6315Z" fill="#FFF082"/>
<path d="M15.9238 32.1612C15.9238 31.3863 16.4647 28.4478 16.7914 26.7436C16.8428 26.4758 17.2253 26.4758 17.2767 26.7436C17.6034 28.4478 18.1443 31.3863 18.1443 32.1612C18.1443 32.7743 17.6472 33.2714 17.0341 33.2714C16.4209 33.2714 15.9238 32.7743 15.9238 32.1612Z" fill="#FFF082"/>
<path d="M18.9365 4.4512L17.6536 1.47221C17.4066 0.898588 16.5933 0.898588 16.3463 1.47221L12.8184 9.66423L3.93723 10.488C3.31533 10.5456 3.06405 11.3191 3.53321 11.7313L10.2341 17.618L8.2731 26.3191C8.13577 26.9284 8.79379 27.4064 9.33076 27.0876L10.3515 26.4815C12.0249 15.6493 16.7292 7.69767 18.9365 4.4512Z" fill="#FFC850"/>
</g>
<defs>
<clipPath id="clip0">
<rect width="34" height="34" fill="white"/>
</clipPath>
</defs>
</svg>
