<svg width="60" height="49" fill="none" xmlns="http://www.w3.org/2000/svg"><path d="M27.108 17.06c0 4.092-3.399 7.41-7.59 7.41s-7.59-3.318-7.59-7.41c0-4.091 3.399-7.41 7.59-7.41s7.59 3.319 7.59 7.41zM41.98 21.578c-5.99 0-8.984 9.037-13.476 9.037-4.492 0-4.489-3.012-10.481-3.012-5.99 0-8.987 12.048-8.987 12.048h41.928s-2.995-18.073-8.984-18.073z" fill="#2D3436"/><path d="M54 .615H6c-3.309 0-6 2.674-6 5.963v35.784c0 3.289 2.691 5.963 6 5.963h48c3.309 0 6-2.674 6-5.964V6.578C60 3.29 57.309.615 54 .615zm0 41.746H6V6.578h48v35.783z" fill="#2D3436"/></svg>