<svg width="13" height="10" viewBox="0 0 13 10" fill="none" xmlns="http://www.w3.org/2000/svg">
<path d="M0 2.6C0 1.94 0.585 1.4 1.3 1.4H3.25L4.55 0.199997H8.45L9.75 1.4H11.7C12.4182 1.4 13 1.937 13 2.6V8.6C13 9.263 12.4182 9.8 11.7 9.8H1.3C0.58175 9.8 0 9.263 0 8.6V2.6ZM6.5 8.6C8.29465 8.6 9.75 7.2566 9.75 5.6C9.75 3.9434 8.29465 2.6 6.5 2.6C4.70535 2.6 3.25 3.9434 3.25 5.6C3.25 7.2566 4.70535 8.6 6.5 8.6ZM6.5 7.4C5.42295 7.4 4.55 6.5942 4.55 5.6C4.55 4.6058 5.42295 3.8 6.5 3.8C7.57705 3.8 8.45 4.6058 8.45 5.6C8.45 6.5942 7.57705 7.4 6.5 7.4Z" fill="#636E72"/>
</svg>
