<svg width="300" height="328" viewBox="0 0 300 328" fill="none" xmlns="http://www.w3.org/2000/svg">
<g filter="url(#filter0_df)">
<rect x="4" y="53" width="292" height="267" rx="30" fill="#F2F2F2"/>
</g>
<path d="M48.6969 21.648C48.3929 21.648 48.1369 21.52 47.9289 21.264L45.3129 18.144C44.9129 18.208 44.4329 18.24 43.8729 18.24C42.1929 18.24 40.7209 17.872 39.4569 17.136C38.1929 16.4 37.2169 15.384 36.5289 14.088C35.8409 12.792 35.4809 11.304 35.4489 9.624C35.4809 7.944 35.8409 6.456 36.5289 5.16C37.2169 3.864 38.1929 2.848 39.4569 2.112C40.7209 1.376 42.1929 1.008 43.8729 1.008C45.5529 1.008 47.0169 1.376 48.2649 2.112C49.5289 2.848 50.5049 3.872 51.1929 5.184C51.8969 6.48 52.2649 7.96 52.2969 9.624C52.2649 11.496 51.8089 13.136 50.9289 14.544C50.0649 15.936 48.8649 16.952 47.3289 17.592L49.4409 19.92C49.6329 20.112 49.7289 20.344 49.7289 20.616C49.7449 20.888 49.6489 21.128 49.4409 21.336C49.2329 21.544 48.9849 21.648 48.6969 21.648ZM43.8729 16.2C45.1529 16.2 46.2649 15.912 47.2089 15.336C48.1529 14.76 48.8729 13.976 49.3689 12.984C49.8649 11.992 50.1129 10.872 50.1129 9.624C50.1129 8.376 49.8649 7.256 49.3689 6.264C48.8729 5.272 48.1529 4.488 47.2089 3.912C46.2649 3.336 45.1529 3.048 43.8729 3.048C42.5769 3.048 41.4569 3.336 40.5129 3.912C39.5849 4.488 38.8729 5.272 38.3769 6.264C37.8809 7.256 37.6329 8.376 37.6329 9.624C37.6329 10.872 37.8809 11.992 38.3769 12.984C38.8729 13.976 39.5849 14.76 40.5129 15.336C41.4569 15.912 42.5769 16.2 43.8729 16.2ZM59.49 18.24C58.61 18.24 57.842 18.032 57.186 17.616C56.546 17.2 56.05 16.632 55.698 15.912C55.362 15.192 55.194 14.4 55.194 13.536V6.72C55.194 6.416 55.298 6.16 55.506 5.952C55.73 5.744 55.994 5.64 56.298 5.64C56.602 5.64 56.858 5.744 57.066 5.952C57.274 6.16 57.378 6.416 57.378 6.72V13.296C57.378 15.248 58.258 16.224 60.018 16.224C60.818 16.224 61.53 16.016 62.154 15.6C62.794 15.184 63.394 14.624 63.954 13.92V6.72C63.954 6.416 64.058 6.16 64.266 5.952C64.49 5.744 64.754 5.64 65.058 5.64C65.362 5.64 65.618 5.744 65.826 5.952C66.034 6.16 66.138 6.416 66.138 6.72V17.016C66.138 17.32 66.034 17.584 65.826 17.808C65.618 18.016 65.362 18.12 65.058 18.12C64.754 18.12 64.49 18.016 64.266 17.808C64.058 17.584 63.954 17.32 63.954 17.016V16.032C63.346 16.704 62.69 17.24 61.986 17.64C61.282 18.04 60.45 18.24 59.49 18.24ZM73.059 18.24C72.355 18.24 71.699 18.096 71.091 17.808C70.499 17.52 70.027 17.104 69.675 16.56C69.323 16 69.147 15.36 69.147 14.64C69.147 13.456 69.611 12.512 70.539 11.808C71.483 11.104 72.859 10.752 74.667 10.752H77.571V10.56C77.571 9.504 77.307 8.744 76.779 8.28C76.267 7.816 75.459 7.584 74.355 7.584C73.747 7.584 73.203 7.632 72.723 7.728C72.259 7.824 71.739 7.968 71.163 8.16C71.035 8.192 70.931 8.208 70.851 8.208C70.611 8.208 70.403 8.12 70.227 7.944C70.051 7.768 69.963 7.552 69.963 7.296C69.963 6.864 70.171 6.56 70.587 6.384C71.947 5.808 73.331 5.52 74.739 5.52C75.843 5.52 76.771 5.744 77.523 6.192C78.291 6.64 78.851 7.224 79.203 7.944C79.571 8.648 79.755 9.416 79.755 10.248V17.04C79.755 17.344 79.643 17.6 79.419 17.808C79.211 18.016 78.955 18.12 78.651 18.12C78.347 18.12 78.091 18.016 77.883 17.808C77.675 17.6 77.571 17.344 77.571 17.04V16.416C76.387 17.632 74.883 18.24 73.059 18.24ZM73.875 16.32C74.579 16.32 75.259 16.152 75.915 15.816C76.571 15.464 77.123 15.032 77.571 14.52V12.504H74.955C72.539 12.504 71.331 13.136 71.331 14.4C71.331 14.976 71.523 15.44 71.907 15.792C72.307 16.144 72.963 16.32 73.875 16.32ZM88.4795 18.24C87.4875 18.24 86.5435 17.992 85.6475 17.496C84.7675 16.984 84.0475 16.248 83.4875 15.288C82.9435 14.312 82.6715 13.176 82.6715 11.88C82.6715 10.584 82.9435 9.456 83.4875 8.496C84.0475 7.52 84.7675 6.784 85.6475 6.288C86.5435 5.776 87.4875 5.52 88.4795 5.52C90.0475 5.52 91.4155 6.128 92.5835 7.344V1.464C92.5835 1.144 92.6875 0.879999 92.8955 0.671999C93.1195 0.463999 93.3835 0.36 93.6875 0.36C93.9915 0.36 94.2475 0.472 94.4555 0.696C94.6635 0.904 94.7675 1.16 94.7675 1.464V17.04C94.7675 17.344 94.6635 17.6 94.4555 17.808C94.2475 18.016 93.9915 18.12 93.6875 18.12C93.3835 18.12 93.1195 18.016 92.8955 17.808C92.6875 17.6 92.5835 17.344 92.5835 17.04V16.416C91.4155 17.632 90.0475 18.24 88.4795 18.24ZM88.7915 16.2C89.5275 16.2 90.2155 16.04 90.8555 15.72C91.5115 15.384 92.0875 14.944 92.5835 14.4V9.36C92.0875 8.816 91.5115 8.384 90.8555 8.064C90.2155 7.728 89.5275 7.56 88.7915 7.56C87.6075 7.56 86.6555 7.936 85.9355 8.688C85.2155 9.44 84.8555 10.504 84.8555 11.88C84.8555 13.256 85.2155 14.32 85.9355 15.072C86.6555 15.824 87.6075 16.2 88.7915 16.2ZM99.6362 18.12C99.3322 18.12 99.0762 18.016 98.8682 17.808C98.6602 17.6 98.5562 17.344 98.5562 17.04V6.744C98.5562 6.44 98.6602 6.184 98.8682 5.976C99.0762 5.752 99.3322 5.64 99.6362 5.64C99.9402 5.64 100.196 5.752 100.404 5.976C100.628 6.184 100.74 6.44 100.74 6.744V7.776C101.86 6.272 103.116 5.52 104.508 5.52H104.628C104.932 5.52 105.18 5.624 105.372 5.832C105.58 6.04 105.684 6.296 105.684 6.6C105.684 6.904 105.58 7.152 105.372 7.344C105.164 7.536 104.9 7.632 104.58 7.632H104.46C103.692 7.632 102.988 7.824 102.348 8.208C101.708 8.576 101.172 9.088 100.74 9.744V17.04C100.74 17.344 100.628 17.6 100.404 17.808C100.196 18.016 99.9402 18.12 99.6362 18.12ZM112.792 18.24C111.56 18.24 110.48 17.976 109.552 17.448C108.624 16.92 107.904 16.176 107.392 15.216C106.896 14.24 106.648 13.128 106.648 11.88C106.648 10.632 106.896 9.528 107.392 8.568C107.904 7.592 108.624 6.84 109.552 6.312C110.48 5.784 111.56 5.52 112.792 5.52C114.008 5.52 115.08 5.784 116.008 6.312C116.936 6.84 117.656 7.592 118.168 8.568C118.68 9.528 118.936 10.632 118.936 11.88C118.936 13.128 118.68 14.24 118.168 15.216C117.656 16.176 116.936 16.92 116.008 17.448C115.08 17.976 114.008 18.24 112.792 18.24ZM112.792 16.248C113.448 16.248 114.072 16.096 114.664 15.792C115.272 15.488 115.768 15.008 116.152 14.352C116.552 13.696 116.752 12.864 116.752 11.856C116.752 10.864 116.552 10.04 116.152 9.384C115.768 8.728 115.272 8.256 114.664 7.968C114.072 7.664 113.448 7.512 112.792 7.512C112.12 7.512 111.48 7.664 110.872 7.968C110.28 8.256 109.792 8.728 109.408 9.384C109.024 10.04 108.832 10.864 108.832 11.856C108.832 12.864 109.024 13.696 109.408 14.352C109.792 15.008 110.28 15.488 110.872 15.792C111.48 16.096 112.12 16.248 112.792 16.248ZM133.292 18.24C132.3 18.24 131.356 17.992 130.46 17.496C129.58 16.984 128.86 16.248 128.3 15.288C127.756 14.312 127.484 13.176 127.484 11.88C127.484 10.584 127.756 9.456 128.3 8.496C128.86 7.52 129.58 6.784 130.46 6.288C131.356 5.776 132.3 5.52 133.292 5.52C134.86 5.52 136.228 6.128 137.396 7.344V1.464C137.396 1.144 137.5 0.879999 137.708 0.671999C137.932 0.463999 138.196 0.36 138.5 0.36C138.804 0.36 139.06 0.472 139.268 0.696C139.476 0.904 139.58 1.16 139.58 1.464V17.04C139.58 17.344 139.476 17.6 139.268 17.808C139.06 18.016 138.804 18.12 138.5 18.12C138.196 18.12 137.932 18.016 137.708 17.808C137.5 17.6 137.396 17.344 137.396 17.04V16.416C136.228 17.632 134.86 18.24 133.292 18.24ZM133.604 16.2C134.34 16.2 135.028 16.04 135.668 15.72C136.324 15.384 136.9 14.944 137.396 14.4V9.36C136.9 8.816 136.324 8.384 135.668 8.064C135.028 7.728 134.34 7.56 133.604 7.56C132.42 7.56 131.468 7.936 130.748 8.688C130.028 9.44 129.668 10.504 129.668 11.88C129.668 13.256 130.028 14.32 130.748 15.072C131.468 15.824 132.42 16.2 133.604 16.2ZM148.841 18.24C146.889 18.24 145.361 17.688 144.257 16.584C143.169 15.464 142.625 13.896 142.625 11.88C142.625 10.744 142.833 9.696 143.249 8.736C143.665 7.776 144.305 7 145.169 6.408C146.033 5.816 147.097 5.52 148.361 5.52C149.545 5.52 150.569 5.8 151.433 6.36C152.297 6.904 152.953 7.64 153.401 8.568C153.849 9.48 154.073 10.48 154.073 11.568C154.073 11.872 153.969 12.128 153.761 12.336C153.569 12.544 153.305 12.648 152.969 12.648H144.833C144.961 13.768 145.377 14.64 146.081 15.264C146.785 15.888 147.769 16.2 149.033 16.2C149.705 16.2 150.289 16.136 150.785 16.008C151.297 15.88 151.793 15.696 152.273 15.456C152.401 15.392 152.545 15.36 152.705 15.36C152.961 15.36 153.185 15.448 153.377 15.624C153.569 15.8 153.665 16.024 153.665 16.296C153.665 16.648 153.457 16.944 153.041 17.184C152.417 17.536 151.801 17.8 151.193 17.976C150.585 18.152 149.801 18.24 148.841 18.24ZM151.913 10.872C151.865 10.088 151.657 9.432 151.289 8.904C150.937 8.376 150.497 7.992 149.969 7.752C149.441 7.496 148.905 7.368 148.361 7.368C147.817 7.368 147.281 7.496 146.753 7.752C146.225 7.992 145.785 8.376 145.433 8.904C145.081 9.432 144.881 10.088 144.833 10.872H151.913ZM164.709 18C164.405 18 164.149 17.896 163.941 17.688C163.733 17.48 163.629 17.224 163.629 16.92V2.352C163.629 2.048 163.733 1.792 163.941 1.584C164.149 1.36 164.405 1.248 164.709 1.248H174.333C174.621 1.248 174.861 1.352 175.053 1.56C175.261 1.752 175.365 1.992 175.365 2.28C175.365 2.568 175.261 2.808 175.053 3C174.861 3.192 174.621 3.288 174.333 3.288H165.813V8.592H173.469C173.757 8.592 173.997 8.696 174.189 8.904C174.397 9.096 174.501 9.336 174.501 9.624C174.501 9.912 174.397 10.152 174.189 10.344C173.997 10.536 173.757 10.632 173.469 10.632H165.813V15.96H174.333C174.621 15.96 174.861 16.064 175.053 16.272C175.261 16.464 175.365 16.704 175.365 16.992C175.365 17.28 175.261 17.52 175.053 17.712C174.861 17.904 174.621 18 174.333 18H164.709ZM182.47 18.12C182.182 18.12 181.918 18.04 181.678 17.88C181.438 17.704 181.262 17.488 181.15 17.232L176.974 7.248C176.894 7.056 176.854 6.888 176.854 6.744C176.854 6.44 176.958 6.184 177.166 5.976C177.374 5.752 177.63 5.64 177.934 5.64C178.142 5.64 178.334 5.704 178.51 5.832C178.702 5.944 178.838 6.088 178.918 6.264L182.59 15.576L186.262 6.264C186.342 6.088 186.47 5.944 186.646 5.832C186.838 5.704 187.038 5.64 187.246 5.64C187.55 5.64 187.806 5.752 188.014 5.976C188.222 6.184 188.326 6.44 188.326 6.744C188.326 6.888 188.286 7.056 188.206 7.248L184.03 17.232C183.918 17.488 183.742 17.704 183.502 17.88C183.262 18.04 182.998 18.12 182.71 18.12H182.47ZM196.089 18.24C194.857 18.24 193.777 17.976 192.849 17.448C191.921 16.92 191.201 16.176 190.689 15.216C190.193 14.24 189.945 13.128 189.945 11.88C189.945 10.632 190.193 9.528 190.689 8.568C191.201 7.592 191.921 6.84 192.849 6.312C193.777 5.784 194.857 5.52 196.089 5.52C197.305 5.52 198.377 5.784 199.305 6.312C200.233 6.84 200.953 7.592 201.465 8.568C201.977 9.528 202.233 10.632 202.233 11.88C202.233 13.128 201.977 14.24 201.465 15.216C200.953 16.176 200.233 16.92 199.305 17.448C198.377 17.976 197.305 18.24 196.089 18.24ZM196.089 16.248C196.745 16.248 197.369 16.096 197.961 15.792C198.569 15.488 199.065 15.008 199.449 14.352C199.849 13.696 200.049 12.864 200.049 11.856C200.049 10.864 199.849 10.04 199.449 9.384C199.065 8.728 198.569 8.256 197.961 7.968C197.369 7.664 196.745 7.512 196.089 7.512C195.417 7.512 194.777 7.664 194.169 7.968C193.577 8.256 193.089 8.728 192.705 9.384C192.321 10.04 192.129 10.864 192.129 11.856C192.129 12.864 192.321 13.696 192.705 14.352C193.089 15.008 193.577 15.488 194.169 15.792C194.777 16.096 195.417 16.248 196.089 16.248ZM206.371 18.12C206.067 18.12 205.811 18.016 205.603 17.808C205.395 17.6 205.291 17.344 205.291 17.04V1.464C205.291 1.16 205.395 0.904 205.603 0.696C205.811 0.472 206.067 0.36 206.371 0.36C206.691 0.36 206.955 0.463999 207.163 0.671999C207.371 0.879999 207.475 1.144 207.475 1.464V17.04C207.475 17.344 207.363 17.6 207.139 17.808C206.931 18.016 206.675 18.12 206.371 18.12ZM215.443 18.24C214.563 18.24 213.795 18.032 213.139 17.616C212.499 17.2 212.003 16.632 211.651 15.912C211.315 15.192 211.147 14.4 211.147 13.536V6.72C211.147 6.416 211.251 6.16 211.459 5.952C211.683 5.744 211.947 5.64 212.251 5.64C212.555 5.64 212.811 5.744 213.019 5.952C213.227 6.16 213.331 6.416 213.331 6.72V13.296C213.331 15.248 214.211 16.224 215.971 16.224C216.771 16.224 217.483 16.016 218.107 15.6C218.747 15.184 219.347 14.624 219.907 13.92V6.72C219.907 6.416 220.011 6.16 220.219 5.952C220.443 5.744 220.707 5.64 221.011 5.64C221.315 5.64 221.571 5.744 221.779 5.952C221.987 6.16 222.091 6.416 222.091 6.72V17.016C222.091 17.32 221.987 17.584 221.779 17.808C221.571 18.016 221.315 18.12 221.011 18.12C220.707 18.12 220.443 18.016 220.219 17.808C220.011 17.584 219.907 17.32 219.907 17.016V16.032C219.299 16.704 218.643 17.24 217.939 17.64C217.235 18.04 216.403 18.24 215.443 18.24ZM235.036 15.288C235.276 15.288 235.484 15.392 235.66 15.6C235.852 15.792 235.948 16.008 235.948 16.248C235.948 16.6 235.788 16.88 235.468 17.088C234.94 17.424 234.364 17.704 233.74 17.928C233.132 18.136 232.404 18.24 231.556 18.24L230.836 19.512C231.092 19.448 231.364 19.416 231.652 19.416C232.196 19.416 232.636 19.568 232.972 19.872C233.324 20.192 233.5 20.6 233.5 21.096C233.5 21.832 233.268 22.384 232.804 22.752C232.356 23.12 231.7 23.304 230.836 23.304C230.068 23.304 229.348 23.096 228.676 22.68C228.612 22.632 228.548 22.568 228.484 22.488C228.436 22.424 228.412 22.352 228.412 22.272C228.412 22.144 228.452 22.032 228.532 21.936C228.612 21.84 228.724 21.792 228.868 21.792C228.932 21.792 229.012 21.816 229.108 21.864C229.604 22.136 230.076 22.272 230.524 22.272C231.436 22.272 231.892 21.904 231.892 21.168C231.892 20.928 231.812 20.744 231.652 20.616C231.492 20.488 231.284 20.424 231.028 20.424C230.676 20.424 230.324 20.512 229.972 20.688C229.876 20.736 229.796 20.76 229.732 20.76C229.62 20.76 229.516 20.72 229.42 20.64C229.34 20.576 229.3 20.488 229.3 20.376C229.3 20.248 229.332 20.136 229.396 20.04L230.572 18.168C229.564 18.024 228.644 17.688 227.812 17.16C226.996 16.616 226.348 15.896 225.868 15C225.388 14.088 225.148 13.048 225.148 11.88C225.148 10.584 225.436 9.456 226.012 8.496C226.604 7.536 227.388 6.8 228.364 6.288C229.34 5.776 230.404 5.52 231.556 5.52C232.404 5.52 233.132 5.632 233.74 5.856C234.364 6.064 234.94 6.336 235.468 6.672C235.788 6.88 235.948 7.16 235.948 7.512C235.948 7.752 235.852 7.976 235.66 8.184C235.484 8.376 235.276 8.472 235.036 8.472C234.86 8.472 234.684 8.424 234.508 8.328C233.98 8.056 233.524 7.864 233.14 7.752C232.772 7.624 232.308 7.56 231.748 7.56C230.372 7.56 229.292 7.96 228.508 8.76C227.724 9.544 227.332 10.584 227.332 11.88C227.332 13.176 227.724 14.224 228.508 15.024C229.292 15.808 230.372 16.2 231.748 16.2C232.308 16.2 232.772 16.144 233.14 16.032C233.524 15.904 233.98 15.704 234.508 15.432C234.684 15.336 234.86 15.288 235.036 15.288ZM241.809 18.24C241.105 18.24 240.449 18.096 239.841 17.808C239.249 17.52 238.777 17.104 238.425 16.56C238.073 16 237.897 15.36 237.897 14.64C237.897 13.456 238.361 12.512 239.289 11.808C240.233 11.104 241.609 10.752 243.417 10.752H246.321V10.56C246.321 9.504 246.057 8.744 245.529 8.28C245.017 7.816 244.209 7.584 243.105 7.584C242.497 7.584 241.953 7.632 241.473 7.728C241.009 7.824 240.489 7.968 239.913 8.16C239.785 8.192 239.681 8.208 239.601 8.208C239.361 8.208 239.153 8.12 238.977 7.944C238.801 7.768 238.713 7.552 238.713 7.296C238.713 6.864 238.921 6.56 239.337 6.384C240.697 5.808 242.081 5.52 243.489 5.52C244.593 5.52 245.521 5.744 246.273 6.192C247.041 6.64 247.601 7.224 247.953 7.944C248.321 8.648 248.505 9.416 248.505 10.248V17.04C248.505 17.344 248.393 17.6 248.169 17.808C247.961 18.016 247.705 18.12 247.401 18.12C247.097 18.12 246.841 18.016 246.633 17.808C246.425 17.6 246.321 17.344 246.321 17.04V16.416C245.137 17.632 243.633 18.24 241.809 18.24ZM242.625 16.32C243.329 16.32 244.009 16.152 244.665 15.816C245.321 15.464 245.873 15.032 246.321 14.52V12.504H243.705C241.289 12.504 240.081 13.136 240.081 14.4C240.081 14.976 240.273 15.44 240.657 15.792C241.057 16.144 241.713 16.32 242.625 16.32ZM240.177 4.296C240.033 4.296 239.905 4.248 239.793 4.152C239.681 4.04 239.625 3.904 239.625 3.744C239.625 3.408 239.705 3.064 239.865 2.712C240.041 2.36 240.281 2.064 240.585 1.824C240.889 1.584 241.241 1.464 241.641 1.464C241.961 1.464 242.257 1.512 242.529 1.608C242.817 1.704 243.161 1.848 243.561 2.04C243.929 2.216 244.241 2.352 244.497 2.448C244.769 2.544 245.049 2.592 245.337 2.592C245.577 2.592 245.761 2.536 245.889 2.424C246.033 2.312 246.145 2.152 246.225 1.944C246.353 1.608 246.553 1.44 246.825 1.44C246.985 1.44 247.113 1.496 247.209 1.608C247.305 1.704 247.361 1.824 247.377 1.968C247.377 2.528 247.185 3.048 246.801 3.528C246.417 4.008 245.937 4.248 245.361 4.248C245.041 4.248 244.737 4.2 244.449 4.104C244.161 3.992 243.809 3.84 243.393 3.648C243.025 3.472 242.713 3.336 242.457 3.24C242.201 3.144 241.937 3.096 241.665 3.096C241.249 3.096 240.937 3.352 240.729 3.864C240.633 4.152 240.449 4.296 240.177 4.296ZM257.566 18.24C256.334 18.24 255.254 17.976 254.326 17.448C253.398 16.92 252.678 16.176 252.166 15.216C251.67 14.24 251.422 13.128 251.422 11.88C251.422 10.632 251.67 9.528 252.166 8.568C252.678 7.592 253.398 6.84 254.326 6.312C255.254 5.784 256.334 5.52 257.566 5.52C258.782 5.52 259.854 5.784 260.782 6.312C261.71 6.84 262.43 7.592 262.942 8.568C263.454 9.528 263.71 10.632 263.71 11.88C263.71 13.128 263.454 14.24 262.942 15.216C262.43 16.176 261.71 16.92 260.782 17.448C259.854 17.976 258.782 18.24 257.566 18.24ZM257.566 16.248C258.222 16.248 258.846 16.096 259.438 15.792C260.046 15.488 260.542 15.008 260.926 14.352C261.326 13.696 261.526 12.864 261.526 11.856C261.526 10.864 261.326 10.04 260.926 9.384C260.542 8.728 260.046 8.256 259.438 7.968C258.846 7.664 258.222 7.512 257.566 7.512C256.894 7.512 256.254 7.664 255.646 7.968C255.054 8.256 254.566 8.728 254.182 9.384C253.798 10.04 253.606 10.864 253.606 11.856C253.606 12.864 253.798 13.696 254.182 14.352C254.566 15.008 255.054 15.488 255.646 15.792C256.254 16.096 256.894 16.248 257.566 16.248Z" fill="#353333"/>
<path d="M38.36 301.07C37.7627 301.07 37.1887 300.986 36.638 300.818C36.0967 300.641 35.672 300.421 35.364 300.16L35.812 299.376C36.12 299.619 36.5073 299.819 36.974 299.978C37.4407 300.127 37.926 300.202 38.43 300.202C39.102 300.202 39.5967 300.099 39.914 299.894C40.2407 299.679 40.404 299.381 40.404 298.998C40.404 298.727 40.3153 298.517 40.138 298.368C39.9607 298.209 39.7367 298.093 39.466 298.018C39.1953 297.934 38.836 297.855 38.388 297.78C37.7907 297.668 37.31 297.556 36.946 297.444C36.582 297.323 36.2693 297.122 36.008 296.842C35.756 296.562 35.63 296.175 35.63 295.68C35.63 295.064 35.8867 294.56 36.4 294.168C36.9133 293.776 37.6273 293.58 38.542 293.58C39.018 293.58 39.494 293.645 39.97 293.776C40.446 293.897 40.838 294.061 41.146 294.266L40.712 295.064C40.1053 294.644 39.382 294.434 38.542 294.434C37.9073 294.434 37.4267 294.546 37.1 294.77C36.7827 294.994 36.624 295.288 36.624 295.652C36.624 295.932 36.7127 296.156 36.89 296.324C37.0767 296.492 37.3053 296.618 37.576 296.702C37.8467 296.777 38.22 296.856 38.696 296.94C39.284 297.052 39.7553 297.164 40.11 297.276C40.4647 297.388 40.768 297.579 41.02 297.85C41.272 298.121 41.398 298.494 41.398 298.97C41.398 299.614 41.1273 300.127 40.586 300.51C40.054 300.883 39.312 301.07 38.36 301.07Z" fill="black"/>
<path d="M77.264 300.552C77.0773 300.72 76.844 300.851 76.564 300.944C76.2933 301.028 76.0087 301.07 75.71 301.07C75.0193 301.07 74.4873 300.883 74.114 300.51C73.7407 300.137 73.554 299.609 73.554 298.928V294.476H72.238V293.636H73.554V292.026H74.548V293.636H76.788V294.476H74.548V298.872C74.548 299.311 74.6553 299.647 74.87 299.88C75.094 300.104 75.4113 300.216 75.822 300.216C76.0273 300.216 76.2233 300.183 76.41 300.118C76.606 300.053 76.774 299.959 76.914 299.838L77.264 300.552Z" fill="black"/>
<path d="M115.106 293.636V303.716H114.112V299.614C113.804 300.09 113.407 300.454 112.922 300.706C112.446 300.949 111.909 301.07 111.312 301.07C110.612 301.07 109.982 300.916 109.422 300.608C108.871 300.291 108.437 299.847 108.12 299.278C107.803 298.709 107.644 298.055 107.644 297.318C107.644 296.59 107.803 295.941 108.12 295.372C108.437 294.803 108.876 294.364 109.436 294.056C109.996 293.739 110.621 293.58 111.312 293.58C111.928 293.58 112.479 293.711 112.964 293.972C113.459 294.233 113.855 294.607 114.154 295.092V293.636H115.106ZM111.396 300.188C111.909 300.188 112.371 300.071 112.782 299.838C113.202 299.595 113.529 299.255 113.762 298.816C114.005 298.377 114.126 297.878 114.126 297.318C114.126 296.758 114.005 296.263 113.762 295.834C113.529 295.395 113.202 295.055 112.782 294.812C112.371 294.569 111.909 294.448 111.396 294.448C110.873 294.448 110.402 294.569 109.982 294.812C109.571 295.055 109.245 295.395 109.002 295.834C108.769 296.263 108.652 296.758 108.652 297.318C108.652 297.878 108.769 298.377 109.002 298.816C109.245 299.255 109.571 299.595 109.982 299.838C110.402 300.071 110.873 300.188 111.396 300.188Z" fill="black"/>
<path d="M153.106 293.636V303.716H152.112V299.614C151.804 300.09 151.407 300.454 150.922 300.706C150.446 300.949 149.909 301.07 149.312 301.07C148.612 301.07 147.982 300.916 147.422 300.608C146.871 300.291 146.437 299.847 146.12 299.278C145.803 298.709 145.644 298.055 145.644 297.318C145.644 296.59 145.803 295.941 146.12 295.372C146.437 294.803 146.876 294.364 147.436 294.056C147.996 293.739 148.621 293.58 149.312 293.58C149.928 293.58 150.479 293.711 150.964 293.972C151.459 294.233 151.855 294.607 152.154 295.092V293.636H153.106ZM149.396 300.188C149.909 300.188 150.371 300.071 150.782 299.838C151.202 299.595 151.529 299.255 151.762 298.816C152.005 298.377 152.126 297.878 152.126 297.318C152.126 296.758 152.005 296.263 151.762 295.834C151.529 295.395 151.202 295.055 150.782 294.812C150.371 294.569 149.909 294.448 149.396 294.448C148.873 294.448 148.402 294.569 147.982 294.812C147.571 295.055 147.245 295.395 147.002 295.834C146.769 296.263 146.652 296.758 146.652 297.318C146.652 297.878 146.769 298.377 147.002 298.816C147.245 299.255 147.571 299.595 147.982 299.838C148.402 300.071 148.873 300.188 149.396 300.188Z" fill="black"/>
<path d="M228.36 301.07C227.763 301.07 227.189 300.986 226.638 300.818C226.097 300.641 225.672 300.421 225.364 300.16L225.812 299.376C226.12 299.619 226.507 299.819 226.974 299.978C227.441 300.127 227.926 300.202 228.43 300.202C229.102 300.202 229.597 300.099 229.914 299.894C230.241 299.679 230.404 299.381 230.404 298.998C230.404 298.727 230.315 298.517 230.138 298.368C229.961 298.209 229.737 298.093 229.466 298.018C229.195 297.934 228.836 297.855 228.388 297.78C227.791 297.668 227.31 297.556 226.946 297.444C226.582 297.323 226.269 297.122 226.008 296.842C225.756 296.562 225.63 296.175 225.63 295.68C225.63 295.064 225.887 294.56 226.4 294.168C226.913 293.776 227.627 293.58 228.542 293.58C229.018 293.58 229.494 293.645 229.97 293.776C230.446 293.897 230.838 294.061 231.146 294.266L230.712 295.064C230.105 294.644 229.382 294.434 228.542 294.434C227.907 294.434 227.427 294.546 227.1 294.77C226.783 294.994 226.624 295.288 226.624 295.652C226.624 295.932 226.713 296.156 226.89 296.324C227.077 296.492 227.305 296.618 227.576 296.702C227.847 296.777 228.22 296.856 228.696 296.94C229.284 297.052 229.755 297.164 230.11 297.276C230.465 297.388 230.768 297.579 231.02 297.85C231.272 298.121 231.398 298.494 231.398 298.97C231.398 299.614 231.127 300.127 230.586 300.51C230.054 300.883 229.312 301.07 228.36 301.07Z" fill="black"/>
<path d="M188.36 301.07C187.763 301.07 187.189 300.986 186.638 300.818C186.097 300.641 185.672 300.421 185.364 300.16L185.812 299.376C186.12 299.619 186.507 299.819 186.974 299.978C187.441 300.127 187.926 300.202 188.43 300.202C189.102 300.202 189.597 300.099 189.914 299.894C190.241 299.679 190.404 299.381 190.404 298.998C190.404 298.727 190.315 298.517 190.138 298.368C189.961 298.209 189.737 298.093 189.466 298.018C189.195 297.934 188.836 297.855 188.388 297.78C187.791 297.668 187.31 297.556 186.946 297.444C186.582 297.323 186.269 297.122 186.008 296.842C185.756 296.562 185.63 296.175 185.63 295.68C185.63 295.064 185.887 294.56 186.4 294.168C186.913 293.776 187.627 293.58 188.542 293.58C189.018 293.58 189.494 293.645 189.97 293.776C190.446 293.897 190.838 294.061 191.146 294.266L190.712 295.064C190.105 294.644 189.382 294.434 188.542 294.434C187.907 294.434 187.427 294.546 187.1 294.77C186.783 294.994 186.624 295.288 186.624 295.652C186.624 295.932 186.713 296.156 186.89 296.324C187.077 296.492 187.305 296.618 187.576 296.702C187.847 296.777 188.22 296.856 188.696 296.94C189.284 297.052 189.755 297.164 190.11 297.276C190.465 297.388 190.768 297.579 191.02 297.85C191.272 298.121 191.398 298.494 191.398 298.97C191.398 299.614 191.127 300.127 190.586 300.51C190.054 300.883 189.312 301.07 188.36 301.07Z" fill="black"/>
<path d="M263.106 290.612V301H262.154V299.544C261.855 300.039 261.459 300.417 260.964 300.678C260.479 300.939 259.928 301.07 259.312 301.07C258.621 301.07 257.996 300.911 257.436 300.594C256.876 300.277 256.437 299.833 256.12 299.264C255.803 298.695 255.644 298.046 255.644 297.318C255.644 296.59 255.803 295.941 256.12 295.372C256.437 294.803 256.876 294.364 257.436 294.056C257.996 293.739 258.621 293.58 259.312 293.58C259.909 293.58 260.446 293.706 260.922 293.958C261.407 294.201 261.804 294.56 262.112 295.036V290.612H263.106ZM259.396 300.188C259.909 300.188 260.371 300.071 260.782 299.838C261.202 299.595 261.529 299.255 261.762 298.816C262.005 298.377 262.126 297.878 262.126 297.318C262.126 296.758 262.005 296.259 261.762 295.82C261.529 295.381 261.202 295.045 260.782 294.812C260.371 294.569 259.909 294.448 259.396 294.448C258.873 294.448 258.402 294.569 257.982 294.812C257.571 295.045 257.245 295.381 257.002 295.82C256.769 296.259 256.652 296.758 256.652 297.318C256.652 297.878 256.769 298.377 257.002 298.816C257.245 299.255 257.571 299.595 257.982 299.838C258.402 300.071 258.873 300.188 259.396 300.188Z" fill="black"/>
<rect x="24" y="132" width="30" height="150" rx="10" fill="#55EFC4"/>
<rect x="60" y="203" width="30" height="79" rx="10" fill="#55EFC4"/>
<rect x="97" y="168" width="30" height="114" rx="10" fill="#55EFC4"/>
<rect x="135" y="218" width="30" height="64" rx="10" fill="#55EFC4"/>
<rect x="211" y="151" width="30" height="131" rx="10" fill="#55EFC4"/>
<rect x="248" y="132" width="30" height="150" rx="10" fill="#55EFC4"/>
<rect x="173" y="211" width="30" height="71" rx="10" fill="#55EFC4"/>
<path d="M124.526 115.108C123.59 115.108 122.69 114.958 121.826 114.658C120.974 114.358 120.314 113.962 119.846 113.47L120.368 112.444C120.824 112.9 121.43 113.272 122.186 113.56C122.942 113.836 123.722 113.974 124.526 113.974C125.654 113.974 126.5 113.77 127.064 113.362C127.628 112.942 127.91 112.402 127.91 111.742C127.91 111.238 127.754 110.836 127.442 110.536C127.142 110.236 126.77 110.008 126.326 109.852C125.882 109.684 125.264 109.504 124.472 109.312C123.524 109.072 122.768 108.844 122.204 108.628C121.64 108.4 121.154 108.058 120.746 107.602C120.35 107.146 120.152 106.528 120.152 105.748C120.152 105.112 120.32 104.536 120.656 104.02C120.992 103.492 121.508 103.072 122.204 102.76C122.9 102.448 123.764 102.292 124.796 102.292C125.516 102.292 126.218 102.394 126.902 102.598C127.598 102.79 128.198 103.06 128.702 103.408L128.252 104.47C127.724 104.122 127.16 103.864 126.56 103.696C125.96 103.516 125.372 103.426 124.796 103.426C123.692 103.426 122.858 103.642 122.294 104.074C121.742 104.494 121.466 105.04 121.466 105.712C121.466 106.216 121.616 106.624 121.916 106.936C122.228 107.236 122.612 107.47 123.068 107.638C123.536 107.794 124.16 107.968 124.94 108.16C125.864 108.388 126.608 108.616 127.172 108.844C127.748 109.06 128.234 109.396 128.63 109.852C129.026 110.296 129.224 110.902 129.224 111.67C129.224 112.306 129.05 112.888 128.702 113.416C128.366 113.932 127.844 114.346 127.136 114.658C126.428 114.958 125.558 115.108 124.526 115.108ZM140.1 110.662H132.18C132.252 111.646 132.63 112.444 133.314 113.056C133.998 113.656 134.862 113.956 135.906 113.956C136.494 113.956 137.034 113.854 137.526 113.65C138.018 113.434 138.444 113.122 138.804 112.714L139.524 113.542C139.104 114.046 138.576 114.43 137.94 114.694C137.316 114.958 136.626 115.09 135.87 115.09C134.898 115.09 134.034 114.886 133.278 114.478C132.534 114.058 131.952 113.482 131.532 112.75C131.112 112.018 130.902 111.19 130.902 110.266C130.902 109.342 131.1 108.514 131.496 107.782C131.904 107.05 132.456 106.48 133.152 106.072C133.86 105.664 134.652 105.46 135.528 105.46C136.404 105.46 137.19 105.664 137.886 106.072C138.582 106.48 139.128 107.05 139.524 107.782C139.92 108.502 140.118 109.33 140.118 110.266L140.1 110.662ZM135.528 106.558C134.616 106.558 133.848 106.852 133.224 107.44C132.612 108.016 132.264 108.772 132.18 109.708H138.894C138.81 108.772 138.456 108.016 137.832 107.44C137.22 106.852 136.452 106.558 135.528 106.558ZM154.528 105.46C155.716 105.46 156.646 105.802 157.318 106.486C158.002 107.17 158.344 108.178 158.344 109.51V115H157.066V109.636C157.066 108.652 156.826 107.902 156.346 107.386C155.878 106.87 155.212 106.612 154.348 106.612C153.364 106.612 152.59 106.918 152.026 107.53C151.462 108.13 151.18 108.964 151.18 110.032V115H149.902V109.636C149.902 108.652 149.662 107.902 149.182 107.386C148.714 106.87 148.042 106.612 147.166 106.612C146.194 106.612 145.42 106.918 144.844 107.53C144.28 108.13 143.998 108.964 143.998 110.032V115H142.72V105.532H143.944V107.26C144.28 106.684 144.748 106.24 145.348 105.928C145.948 105.616 146.638 105.46 147.418 105.46C148.21 105.46 148.894 105.628 149.47 105.964C150.058 106.3 150.496 106.798 150.784 107.458C151.132 106.834 151.63 106.348 152.278 106C152.938 105.64 153.688 105.46 154.528 105.46ZM165.121 105.46C166.357 105.46 167.305 105.772 167.965 106.396C168.625 107.008 168.955 107.92 168.955 109.132V115H167.731V113.524C167.443 114.016 167.017 114.4 166.453 114.676C165.901 114.952 165.241 115.09 164.473 115.09C163.417 115.09 162.577 114.838 161.953 114.334C161.329 113.83 161.017 113.164 161.017 112.336C161.017 111.532 161.305 110.884 161.881 110.392C162.469 109.9 163.399 109.654 164.671 109.654H167.677V109.078C167.677 108.262 167.449 107.644 166.993 107.224C166.537 106.792 165.871 106.576 164.995 106.576C164.395 106.576 163.819 106.678 163.267 106.882C162.715 107.074 162.241 107.344 161.845 107.692L161.269 106.738C161.749 106.33 162.325 106.018 162.997 105.802C163.669 105.574 164.377 105.46 165.121 105.46ZM164.671 114.082C165.391 114.082 166.009 113.92 166.525 113.596C167.041 113.26 167.425 112.78 167.677 112.156V110.608H164.707C163.087 110.608 162.277 111.172 162.277 112.3C162.277 112.852 162.487 113.29 162.907 113.614C163.327 113.926 163.915 114.082 164.671 114.082ZM177.251 105.46C178.439 105.46 179.381 105.808 180.077 106.504C180.785 107.188 181.139 108.19 181.139 109.51V115H179.861V109.636C179.861 108.652 179.615 107.902 179.123 107.386C178.631 106.87 177.929 106.612 177.017 106.612C175.997 106.612 175.187 106.918 174.587 107.53C173.999 108.13 173.705 108.964 173.705 110.032V115H172.427V105.532H173.651V107.278C173.999 106.702 174.479 106.258 175.091 105.946C175.715 105.622 176.435 105.46 177.251 105.46ZM187.92 105.46C189.156 105.46 190.104 105.772 190.764 106.396C191.424 107.008 191.754 107.92 191.754 109.132V115H190.53V113.524C190.242 114.016 189.816 114.4 189.252 114.676C188.7 114.952 188.04 115.09 187.272 115.09C186.216 115.09 185.376 114.838 184.752 114.334C184.128 113.83 183.816 113.164 183.816 112.336C183.816 111.532 184.104 110.884 184.68 110.392C185.268 109.9 186.198 109.654 187.47 109.654H190.476V109.078C190.476 108.262 190.248 107.644 189.792 107.224C189.336 106.792 188.67 106.576 187.794 106.576C187.194 106.576 186.618 106.678 186.066 106.882C185.514 107.074 185.04 107.344 184.644 107.692L184.068 106.738C184.548 106.33 185.124 106.018 185.796 105.802C186.468 105.574 187.176 105.46 187.92 105.46ZM187.47 114.082C188.19 114.082 188.808 113.92 189.324 113.596C189.84 113.26 190.224 112.78 190.476 112.156V110.608H187.506C185.886 110.608 185.076 111.172 185.076 112.3C185.076 112.852 185.286 113.29 185.706 113.614C186.126 113.926 186.714 114.082 187.47 114.082Z" fill="black"/>
<defs>
<filter id="filter0_df" x="0" y="49" width="300" height="279" filterUnits="userSpaceOnUse" color-interpolation-filters="sRGB">
<feFlood flood-opacity="0" result="BackgroundImageFix"/>
<feColorMatrix in="SourceAlpha" type="matrix" values="0 0 0 0 0 0 0 0 0 0 0 0 0 0 0 0 0 0 127 0"/>
<feOffset dy="4"/>
<feGaussianBlur stdDeviation="2"/>
<feColorMatrix type="matrix" values="0 0 0 0 0 0 0 0 0 0 0 0 0 0 0 0 0 0 0.25 0"/>
<feBlend mode="normal" in2="BackgroundImageFix" result="effect1_dropShadow"/>
<feBlend mode="normal" in="SourceGraphic" in2="effect1_dropShadow" result="shape"/>
<feGaussianBlur stdDeviation="2" result="effect2_foregroundBlur"/>
</filter>
</defs>
</svg>
